<svg version="1.1" xmlns="http://www.w3.org/2000/svg" style="display: block;" viewBox="554.667 492 938.667 954.667" width="938.667" height="954.667" preserveAspectRatio="none">
<defs>
	<linearGradient id="Gradient1" gradientUnits="userSpaceOnUse" x1="759.841" y1="970.907" x2="1016.75" y2="952.41">
		<stop class="stop0" offset="0" stop-opacity="1" stop-color="rgb(172,57,239)"/>
		<stop class="stop1" offset="1" stop-opacity="1" stop-color="rgb(116,137,249)"/>
	</linearGradient>
	<linearGradient id="Gradient2" gradientUnits="userSpaceOnUse" x1="1188.34" y1="965.969" x2="1016.98" y2="966.399">
		<stop class="stop0" offset="0" stop-opacity="1" stop-color="rgb(41,212,241)"/>
		<stop class="stop1" offset="1" stop-opacity="1" stop-color="rgb(117,136,246)"/>
	</linearGradient>
</defs>
<path transform="translate(0,0)" fill="rgb(41,44,46)" d="M 638.712 512.385 C 654.291 511.572 673.682 512.066 689.615 512.07 L 778.018 512.088 L 1049.74 512.104 L 1287.23 512.1 L 1360.02 512.018 C 1374.74 511.98 1389.9 511.548 1404.53 512.33 C 1442.32 514.351 1472.36 546.985 1473.08 584.499 C 1473.53 608.124 1473.65 631.113 1473.67 654.6 C 1473.89 714.234 1473.76 773.868 1473.28 833.5 L 1473.13 1192.44 L 1472.89 1301.29 C 1472.85 1319.89 1473.43 1339.12 1472.48 1357.65 C 1470.58 1394.29 1443.66 1419.42 1409.48 1426.78 C 1401.03 1427.87 1386.63 1427.29 1377.58 1427.27 L 1320.1 1427.21 L 1124.76 1427.17 L 800.098 1427.18 L 701.254 1427.17 C 673.989 1427.25 634.149 1431.56 610.924 1417.35 C 592.861 1406.21 580.087 1388.22 575.518 1367.49 C 573.566 1358.26 574.157 1307.04 574.097 1294.05 L 573.984 1102.66 L 573.883 757.512 L 573.821 644.638 C 573.816 624.618 573.283 604.286 574.123 584.31 C 575.746 545.681 601.898 519.332 638.712 512.385 z"/>
<path transform="translate(0,0)" fill="rgb(41,44,46)" d="M 1023.78 603.043 L 1265.35 603.001 C 1306.48 603.011 1348.74 602.512 1389.8 603.088 L 1389.68 1134.35 C 1389.67 1201.46 1390.35 1269.84 1389.61 1336.84 L 1023.79 1336.82 L 657.515 1336.87 L 657.314 603.09 L 1023.78 603.043 z"/>
<path transform="translate(0,0)" fill="rgb(18,226,241)" d="M 1023.78 603.043 L 1265.35 603.001 C 1306.48 603.011 1348.74 602.512 1389.8 603.088 L 1389.68 1134.35 C 1389.67 1201.46 1390.35 1269.84 1389.61 1336.84 L 1023.79 1336.82 L 1023.53 1319.61 L 1373.04 1319.76 L 1373.01 619.983 L 1023.83 619.975 L 1023.78 603.043 z"/>
<path transform="translate(0,0)" fill="rgb(156,78,241)" d="M 657.314 603.09 L 1023.78 603.043 L 1023.83 619.975 L 673.786 620.1 L 673.695 1319.76 C 789.499 1319.79 907.877 1321.06 1023.53 1319.61 L 1023.79 1336.82 L 657.515 1336.87 L 657.314 603.09 z"/>
<path transform="translate(0,0)" fill="url(#Gradient2)" d="M 1201.35 1122.02 C 1181.94 1126.34 1152.02 1123.33 1132.92 1118.79 C 1093.67 1109.65 1059.66 1085.28 1038.4 1051.05 C 1015.69 1014.07 1010.21 968.909 1020.3 927.003 C 1029.96 887.521 1055.15 853.611 1090.16 832.964 C 1126.38 811.276 1175.63 803.701 1216.51 814.053 C 1247 817.996 1278.23 840.534 1298.72 862.563 C 1286.45 874.99 1273.2 887.944 1261.28 900.605 C 1239.51 878.624 1237.16 878.779 1210.31 865.837 C 1178.29 858.577 1149.94 859.166 1121.2 877.111 C 1098.07 891.558 1081.7 914.676 1075.76 941.29 C 1069.21 969.778 1074.17 1001.22 1089.95 1025.92 C 1104.26 1048.2 1126.82 1063.9 1152.7 1069.57 C 1168.87 1072.99 1184.13 1072.9 1200.37 1070.16 C 1228.61 1063.87 1241.67 1053.51 1261.65 1032.52 C 1273.5 1045.38 1286.54 1056.96 1298.7 1069.5 C 1275.09 1096.91 1238.7 1121.2 1201.35 1122.02 z"/>
<path transform="translate(0,0)" fill="rgb(18,226,241)" d="M 1261.65 1032.52 C 1273.5 1045.38 1286.54 1056.96 1298.7 1069.5 C 1275.09 1096.91 1238.7 1121.2 1201.35 1122.02 C 1196.75 1121.27 1192.16 1122.16 1186.73 1121.77 C 1186.32 1115.18 1187.8 1108.01 1187.98 1101.43 C 1188.22 1093 1184.31 1082.5 1181.48 1074.71 C 1187.35 1073.9 1195.67 1073.46 1200.37 1070.16 C 1228.61 1063.87 1241.67 1053.51 1261.65 1032.52 z"/>
<path transform="translate(0,0)" fill="rgb(18,226,241)" d="M 1182.05 811.43 C 1191.18 811.83 1209.59 814.899 1216.51 814.053 C 1247 817.996 1278.23 840.534 1298.72 862.563 C 1286.45 874.99 1273.2 887.944 1261.28 900.605 C 1239.51 878.624 1237.16 878.779 1210.31 865.837 L 1207.92 863.289 C 1203.7 861.887 1188.47 859.342 1184.41 860.117 C 1180.88 857.596 1188.46 839.372 1188.87 834.477 C 1189.54 826.562 1184.53 821.036 1182.05 811.43 z"/>
<path transform="translate(0,0)" fill="url(#Gradient1)" d="M 750.069 814.906 L 1009.15 814.863 L 1009.13 864.987 L 907.277 864.993 C 906.629 915.064 907.165 966.334 907.142 1016.5 L 907.113 1118.84 C 888.295 1119.1 869.147 1118.95 850.301 1118.99 C 848.564 1036.5 850.072 947.925 850.199 865.054 L 750.172 864.953 C 750.039 848.271 750.005 831.588 750.069 814.906 z"/>
</svg>